<?xml version="1.0" encoding="UTF-8" standalone="no"?><!DOCTYPE svg PUBLIC "-//W3C//DTD SVG 1.1//EN" "http://www.w3.org/Graphics/SVG/1.1/DTD/svg11.dtd"><svg width="100%" height="100%" viewBox="0 0 100 100" version="1.1" xmlns="http://www.w3.org/2000/svg" xmlns:xlink="http://www.w3.org/1999/xlink" xml:space="preserve" xmlns:serif="http://www.serif.com/" style="fill-rule:evenodd;clip-rule:evenodd;stroke-linejoin:round;stroke-miterlimit:2;"><path d="M50.004,8.342c-23.008,0 -41.662,18.654 -41.662,41.662c0,20.792 15.233,38.025 35.154,41.163l0,-29.117l-10.584,0l0,-12.046l10.584,0l0,-9.179c0,-10.45 6.221,-16.212 15.733,-16.212c4.558,0 9.333,0.812 9.333,0.812l0,10.246l-5.266,0c-5.167,0 -6.784,3.217 -6.784,6.512l0,7.813l11.546,0l-1.846,12.046l-9.7,0l0,29.116c19.921,-3.12 35.155,-20.358 35.155,-41.154c0,-23.008 -18.655,-41.662 -41.663,-41.662Z" style="fill:#989898;fill-rule:nonzero;"/></svg>