<?xml version="1.0" encoding="UTF-8" standalone="no"?><!DOCTYPE svg PUBLIC "-//W3C//DTD SVG 1.1//EN" "http://www.w3.org/Graphics/SVG/1.1/DTD/svg11.dtd"><svg width="100%" height="100%" viewBox="0 0 100 100" version="1.1" xmlns="http://www.w3.org/2000/svg" xmlns:xlink="http://www.w3.org/1999/xlink" xml:space="preserve" xmlns:serif="http://www.serif.com/" style="fill-rule:evenodd;clip-rule:evenodd;stroke-linejoin:round;stroke-miterlimit:2;"><path d="M87.279,34.604c-0.046,-3.154 -0.629,-6.283 -1.746,-9.233c-1.954,-5.038 -5.933,-9.021 -10.971,-10.971c-2.912,-1.096 -5.991,-1.683 -9.108,-1.75c-4.008,-0.179 -5.279,-0.229 -15.454,-0.229c-10.175,0 -11.479,0 -15.458,0.229c-3.113,0.067 -6.192,0.654 -9.104,1.75c-5.038,1.95 -9.021,5.933 -10.971,10.971c-1.096,2.912 -1.688,5.992 -1.746,9.104c-0.179,4.012 -0.233,5.283 -0.233,15.458c0,10.175 0,11.475 0.233,15.459c0.062,3.116 0.65,6.191 1.746,9.112c1.954,5.034 5.933,9.017 10.975,10.967c2.9,1.133 5.979,1.775 9.104,1.875c4.012,0.179 5.283,0.233 15.458,0.233c10.175,0 11.479,0 15.459,-0.233c3.112,-0.063 6.191,-0.65 9.108,-1.746c5.037,-1.954 9.017,-5.937 10.971,-10.971c1.096,-2.916 1.683,-5.991 1.746,-9.112c0.179,-4.009 0.233,-5.279 0.233,-15.459c-0.008,-10.175 -0.008,-11.466 -0.242,-15.454Zm-37.304,34.571c-10.642,0 -19.262,-8.621 -19.262,-19.262c0,-10.642 8.62,-19.263 19.262,-19.263c10.633,0 19.263,8.621 19.263,19.263c0,10.641 -8.63,19.262 -19.263,19.262Zm20.029,-34.746c-2.487,0 -4.491,-2.008 -4.491,-4.491c0,-2.484 2.004,-4.492 4.491,-4.492c2.479,0 4.488,2.008 4.488,4.492c0,2.483 -2.009,4.491 -4.488,4.491Z" style="fill:#989898;fill-rule:nonzero;"/><circle cx="49.975" cy="49.913" r="12.513" style="fill:#989898;"/></svg>