<?xml version="1.0" encoding="UTF-8" standalone="no"?><!DOCTYPE svg PUBLIC "-//W3C//DTD SVG 1.1//EN" "http://www.w3.org/Graphics/SVG/1.1/DTD/svg11.dtd"><svg width="100%" height="100%" viewBox="0 0 1080 1080" version="1.1" xmlns="http://www.w3.org/2000/svg" xmlns:xlink="http://www.w3.org/1999/xlink" xml:space="preserve" xmlns:serif="http://www.serif.com/" style="fill-rule:evenodd;clip-rule:evenodd;stroke-linecap:round;stroke-linejoin:round;stroke-miterlimit:1.5;"><rect id="Artboard1" x="0" y="0" width="1080" height="1080" style="fill:none;"/><g id="Artboard11" serif:id="Artboard1"><g><g><g><path d="M822.558,239.528c2.212,0.091 4.082,-1.604 4.175,-3.782c0.092,-2.179 -1.628,-4.022 -3.84,-4.113c-2.211,-0.091 -4.082,1.604 -4.174,3.783c-0.093,2.178 1.628,4.021 3.839,4.112Z" style="fill:#1e1c5e;"/><path d="M782.512,405.38l40.214,-169.799" style="fill:none;"/><path d="M786.566,406.34c0,0 9.173,-42.649 18.47,-85.287c9.295,-42.635 18.707,-85.232 18.707,-85.232c0.133,-0.561 -0.215,-1.124 -0.776,-1.257c-0.562,-0.133 -1.125,0.214 -1.258,0.776c0,0 -10.693,42.293 -21.507,84.568c-10.815,42.279 -21.745,84.511 -21.745,84.511c-0.53,2.238 0.857,4.485 3.094,5.015c2.238,0.53 4.485,-0.856 5.015,-3.094Z" style="fill:#1e1c5f;"/></g><path d="M803.601,338.649c1.288,-4.542 -1.361,-9.247 -5.912,-10.5l-16.495,-4.543c-4.552,-1.254 -9.294,1.416 -10.583,5.958l-18.737,66.031c-1.289,4.542 1.36,9.248 5.912,10.501l16.495,4.543c4.551,1.253 9.293,-1.416 10.582,-5.959l18.738,-66.031Z" style="fill:#2e1063;"/></g><path d="M553.229,623.817l58.737,38.544c49.571,98.482 -0.444,124.712 -58.737,127.593c-65.828,3.254 -111.561,-28.812 -70.781,-128.922l70.781,-37.215Z" style="fill:#657592;stroke:#989898;stroke-width:4.17px;"/><path d="M673.687,598.801c-9.7,-37.693 -16.997,-64.861 7.915,-82.226c5.233,-3.649 17.607,-0.838 22.388,5.326c52.627,67.845 49.247,109.476 62.552,204.045c0.85,6.044 4.548,35.328 -1.473,35.183c-5.723,-0.138 -12.308,-40.217 -36.786,-80.351c-26.923,-44.143 -29.114,-26.669 -54.596,-81.977Z" style="fill:#fff;"/><clipPath id="_clip1"><path d="M673.687,598.801c-9.7,-37.693 -16.997,-64.861 7.915,-82.226c5.233,-3.649 17.607,-0.838 22.388,5.326c52.627,67.845 49.247,109.476 62.552,204.045c0.85,6.044 4.548,35.328 -1.473,35.183c-5.723,-0.138 -12.308,-40.217 -36.786,-80.351c-26.923,-44.143 -29.114,-26.669 -54.596,-81.977Z"/></clipPath><g clip-path="url(#_clip1)"><path d="M670.831,522.397c40.806,64.305 72.158,151.034 97.613,243.694c-31.78,41.763 -61.792,-48.576 -91.642,-145.624c-24.266,-46.07 -24.878,-80.354 -5.971,-98.07Z" style="fill:#99b1dd;"/></g><path d="M673.687,598.801c-9.7,-37.693 -16.997,-64.861 7.915,-82.226c5.233,-3.649 17.607,-0.838 22.388,5.326c52.627,67.845 49.247,109.476 62.552,204.045c0.85,6.044 4.548,35.328 -1.473,35.183c-5.723,-0.138 -12.308,-40.217 -36.786,-80.351c-26.923,-44.143 -29.114,-26.669 -54.596,-81.977Z" style="fill:none;stroke:#989898;stroke-width:4.17px;"/><path d="M401.391,454.008c23.434,31.291 40.607,53.731 24.2,79.08c-3.447,5.325 -15.982,7.327 -22.772,3.399c-74.742,-43.235 -87.574,-83.04 -136.154,-165.651c-3.105,-5.28 -17.757,-31.018 -12.126,-33.125c5.351,-2.002 26.816,32.658 64.869,60.709c41.854,30.854 37.183,13.86 81.983,55.588Z" style="fill:#fff;"/><clipPath id="_clip2"><path d="M401.391,454.008c23.434,31.291 40.607,53.731 24.2,79.08c-3.447,5.325 -15.982,7.327 -22.772,3.399c-74.742,-43.235 -87.574,-83.04 -136.154,-165.651c-3.105,-5.28 -17.757,-31.018 -12.126,-33.125c5.351,-2.002 26.816,32.658 64.869,60.709c41.854,30.854 37.183,13.86 81.983,55.588Z"/></clipPath><g clip-path="url(#_clip2)"><path d="M430.444,522.397c-132.974,-84.31 -163.195,-165.031 -177.18,-200.718c-6.201,77.215 -0.724,147.372 26.807,158.125c72.961,89.19 122.383,101.081 150.373,42.593Z" style="fill:#99b1dd;"/></g><path d="M401.391,454.008c23.434,31.291 40.607,53.731 24.2,79.08c-3.447,5.325 -15.982,7.327 -22.772,3.399c-74.742,-43.235 -87.574,-83.04 -136.154,-165.651c-3.105,-5.28 -17.757,-31.018 -12.126,-33.125c5.351,-2.002 26.816,32.658 64.869,60.709c41.854,30.854 37.183,13.86 81.983,55.588Z" style="fill:none;stroke:#989898;stroke-width:4.17px;"/><path d="M644.209,565.768c-18.973,74.302 -50.535,155.211 -91.394,155.451c-53.449,0.313 -82.661,-84.657 -105.58,-149.426c-20.427,-57.724 11.788,-106.46 91.741,-107.249c81.232,-0.801 123.389,30.124 105.233,101.224Z" style="fill:#fff;"/><clipPath id="_clip3"><path d="M644.209,565.768c-18.973,74.302 -50.535,155.211 -91.394,155.451c-53.449,0.313 -82.661,-84.657 -105.58,-149.426c-20.427,-57.724 11.788,-106.46 91.741,-107.249c81.232,-0.801 123.389,30.124 105.233,101.224Z"/></clipPath><g clip-path="url(#_clip3)"><path d="M483.537,471.175c23.09,68.731 132.388,29.215 164.847,100.77c29.409,113.116 -12.542,157.181 -95.569,161.501c-166.206,-83.933 -216.986,-182.523 -69.278,-262.271Z" style="fill:#99b1dd;"/></g><path d="M644.209,565.768c-18.973,74.302 -50.535,155.211 -91.394,155.451c-53.449,0.313 -82.661,-84.657 -105.58,-149.426c-20.427,-57.724 11.788,-106.46 91.741,-107.249c81.232,-0.801 123.389,30.124 105.233,101.224Z" style="fill:none;stroke:#989898;stroke-width:4.17px;"/><path d="M553.242,479.251c140.727,26.812 219.819,59.124 227.733,-118.282c4.53,-101.571 -45.026,-165.41 -173.352,-193.223c-120.707,-26.161 -200.719,47.579 -222.456,124.263c-44.062,155.449 44.676,163.731 168.075,187.242Z" style="fill:#fff;"/><clipPath id="_clip4"><path d="M553.242,479.251c140.727,26.812 219.819,59.124 227.733,-118.282c4.53,-101.571 -45.026,-165.41 -173.352,-193.223c-120.707,-26.161 -200.719,47.579 -222.456,124.263c-44.062,155.449 44.676,163.731 168.075,187.242Z"/></clipPath><g clip-path="url(#_clip4)"><path d="M508.136,162.367c-184.491,143.332 8.5,285.554 87.706,338.023c-71.895,51.482 -281.45,33.424 -253.172,-142.491c0,-44.963 49.482,-174.926 165.466,-195.532Z" style="fill:#99b1dd;"/></g><path d="M553.242,479.251c140.727,26.812 219.819,59.124 227.733,-118.282c4.53,-101.571 -45.026,-165.41 -173.352,-193.223c-120.707,-26.161 -200.719,47.579 -222.456,124.263c-44.062,155.449 44.676,163.731 168.075,187.242Z" style="fill:none;stroke:#989898;stroke-width:4.17px;"/><path d="M546.512,452.421c118.282,26.775 203.851,42.134 205.179,-78.286c0.671,-60.8 -37.563,-106.55 -137.218,-128.084c-101.968,-22.035 -170.323,6.836 -194.18,57.121c-48.363,101.935 22.501,125.771 126.219,149.249Z" style="fill:#35378e;"/><clipPath id="_clip5"><path d="M546.512,452.421c118.282,26.775 203.851,42.134 205.179,-78.286c0.671,-60.8 -37.563,-106.55 -137.218,-128.084c-101.968,-22.035 -170.323,6.836 -194.18,57.121c-48.363,101.935 22.501,125.771 126.219,149.249Z"/></clipPath><g clip-path="url(#_clip5)"><path d="M521.933,233.083c-101.288,49.005 -99.011,177.18 -5.075,223.464c-89.781,-15.417 -138.987,-81.585 -125.623,-146.626c40.165,-54.65 83.337,-83.623 130.698,-76.838Z" style="fill:#262666;"/></g><g transform="matrix(0.981975,0.189012,-0.194544,0.98091,-95.2795,33.8116)"><text x="616.88px" y="230.393px" style="font-family:'OCRAStd', 'OCR A Std', monospace;font-size:112.004px;fill:#6bcff3;stroke:#6bcff3;stroke-width:1px;stroke-linecap:butt;stroke-miterlimit:2;">H<tspan x="698.65px 780.419px " y="230.393px 230.393px ">I!</tspan></text></g></g></g></svg>