<?xml version="1.0" encoding="UTF-8" standalone="no"?><!DOCTYPE svg PUBLIC "-//W3C//DTD SVG 1.1//EN" "http://www.w3.org/Graphics/SVG/1.1/DTD/svg11.dtd"><svg width="100%" height="100%" viewBox="0 0 100 100" version="1.1" xmlns="http://www.w3.org/2000/svg" xmlns:xlink="http://www.w3.org/1999/xlink" xml:space="preserve" xmlns:serif="http://www.serif.com/" style="fill-rule:evenodd;clip-rule:evenodd;stroke-linejoin:round;stroke-miterlimit:2;"><path d="M81.475,39.533c0.504,2.346 0.442,5.192 -0.167,8.546c-2.425,12.409 -10.321,18.609 -23.679,18.609l-1.842,-0.001c-0.7,0.001 -1.308,0.234 -1.85,0.692c-0.525,0.459 -0.866,1.054 -0.995,1.779l-0.171,0.788l-2.304,14.496l-0.088,0.629c-0.137,0.729 -0.479,1.317 -1.029,1.775c-0.542,0.462 -1.158,0.692 -1.863,0.692l-10.512,0c-0.592,0 -1.05,-0.205 -1.379,-0.625c-0.334,-0.425 -0.459,-0.921 -0.375,-1.513c0.254,-1.554 0.616,-3.908 1.112,-7.037c0.488,-3.125 0.859,-5.475 1.113,-7.038c0.254,-1.562 0.625,-3.908 1.133,-7.021c0.504,-3.116 0.883,-5.458 1.129,-7.021c0.138,-1.033 0.746,-1.545 1.804,-1.545l5.484,0c3.721,0.054 7.008,-0.238 9.896,-0.88c4.883,-1.091 8.891,-3.1 12.025,-6.037c2.854,-2.654 5.012,-6.092 6.5,-10.304c0.675,-1.959 1.154,-3.821 1.466,-5.575c0.025,-0.171 0.059,-0.275 0.105,-0.309c0.033,-0.045 0.091,-0.058 0.145,-0.045c0.05,0.016 0.134,0.066 0.259,0.145c2.183,1.659 3.558,3.921 4.083,6.8Zm-7.2,-11.816c0,2.987 -0.642,6.283 -1.938,9.891c-2.237,6.509 -6.445,10.909 -12.654,13.2c-3.158,1.121 -6.675,1.7 -10.562,1.771c0,0.025 -1.254,0.029 -3.767,0.029l-3.762,-0.029c-2.8,0 -4.446,1.334 -4.946,4.017c-0.054,0.221 -1.242,7.625 -3.563,22.204c-0.033,0.275 -0.2,0.425 -0.504,0.425l-12.354,0c-0.617,0 -1.129,-0.229 -1.538,-0.687c-0.408,-0.467 -0.562,-1.005 -0.479,-1.625l9.717,-61.646c0.133,-0.813 0.521,-1.475 1.15,-2.013c0.629,-0.529 1.354,-0.791 2.162,-0.791l25.059,0c0.95,0 2.312,0.183 4.079,0.545c1.783,0.35 3.337,0.809 4.679,1.338c2.992,1.142 5.275,2.867 6.854,5.154c1.58,2.3 2.367,5.029 2.367,8.217Z" style="fill:#989898;fill-rule:nonzero;"/></svg>