<?xml version="1.0" encoding="UTF-8" standalone="no"?><!DOCTYPE svg PUBLIC "-//W3C//DTD SVG 1.1//EN" "http://www.w3.org/Graphics/SVG/1.1/DTD/svg11.dtd"><svg width="100%" height="100%" viewBox="0 0 100 100" version="1.1" xmlns="http://www.w3.org/2000/svg" xmlns:xlink="http://www.w3.org/1999/xlink" xml:space="preserve" xmlns:serif="http://www.serif.com/" style="fill-rule:evenodd;clip-rule:evenodd;stroke-linejoin:round;stroke-miterlimit:2;"><path d="M49.958,8.333c-22.991,0 -41.625,18.638 -41.625,41.625c0,17.634 10.971,32.709 26.459,38.775c-0.367,-3.291 -0.692,-8.358 0.141,-11.95c0.759,-3.25 4.884,-20.691 4.884,-20.691c0,0 -1.246,-2.496 -1.246,-6.184c0,-5.783 3.354,-10.104 7.533,-10.104c3.554,0 5.267,2.667 5.267,5.863c0,3.575 -2.275,8.912 -3.446,13.862c-0.979,4.142 2.079,7.521 6.163,7.521c7.395,0 13.087,-7.8 13.087,-19.062c0,-9.967 -7.162,-16.934 -17.387,-16.934c-11.846,0 -18.801,8.884 -18.801,18.063c0.001,3.575 1.38,7.412 3.101,9.5c0.337,0.412 0.387,0.771 0.287,1.191c-0.317,1.313 -1.021,4.142 -1.154,4.721c-0.183,0.763 -0.604,0.925 -1.396,0.559c-5.196,-2.421 -8.446,-10.021 -8.446,-16.13c0,-13.129 9.538,-25.187 27.504,-25.187c14.442,0 25.663,10.287 25.663,24.042c0,14.35 -9.046,25.887 -21.6,25.887c-4.221,0 -8.183,-2.187 -9.542,-4.775c0,0 -2.087,7.946 -2.596,9.892c-0.937,3.616 -3.475,8.15 -5.17,10.916c3.895,1.205 8.033,1.855 12.325,1.855c22.987,0 41.625,-18.638 41.625,-41.625c0,-22.988 -18.642,-41.63 -41.63,-41.63" style="fill:#989898;fill-rule:nonzero;"/></svg>