<?xml version="1.0" encoding="UTF-8" standalone="no"?><!DOCTYPE svg PUBLIC "-//W3C//DTD SVG 1.1//EN" "http://www.w3.org/Graphics/SVG/1.1/DTD/svg11.dtd"><svg width="100%" height="100%" viewBox="0 0 100 100" version="1.1" xmlns="http://www.w3.org/2000/svg" xmlns:xlink="http://www.w3.org/1999/xlink" xml:space="preserve" xmlns:serif="http://www.serif.com/" style="fill-rule:evenodd;clip-rule:evenodd;stroke-linejoin:round;stroke-miterlimit:2;"><path d="M83.333,29.167l0,-8.334c0,-4.596 -3.737,-8.333 -8.333,-8.333l-54.167,0c-6.891,0 -12.5,5.608 -12.5,12.5l0,50c0,9.171 7.475,12.5 12.5,12.5l62.5,0c4.596,0 8.334,-3.737 8.334,-8.333l0,-41.667c0,-4.596 -3.738,-8.333 -8.334,-8.333Zm-8.333,37.5l-8.333,0l0,-16.667l8.333,0l0,16.667Zm-54.167,-37.5c-2.3,0 -4.166,-1.871 -4.166,-4.167c0,-2.296 1.866,-4.167 4.166,-4.167l54.167,0l0,8.334l-54.167,0Z" style="fill:#989898;fill-rule:nonzero;"/></svg>